<svg width="32" height="33" viewBox="0 0 32 33" fill="none" xmlns="http://www.w3.org/2000/svg">
<path d="M22.25 4.896C19.6688 4.896 17.4088 6.006 16 7.88225C14.5912 6.006 12.3312 4.896 9.75 4.896C7.69528 4.89831 5.72539 5.71557 4.27248 7.16848C2.81958 8.62138 2.00232 10.5913 2 12.646C2 21.396 14.9737 28.4785 15.5262 28.771C15.6719 28.8493 15.8346 28.8903 16 28.8903C16.1654 28.8903 16.3281 28.8493 16.4737 28.771C17.0262 28.4785 30 21.396 30 12.646C29.9977 10.5913 29.1804 8.62138 27.7275 7.16848C26.2746 5.71557 24.3047 4.89831 22.25 4.896ZM16 26.746C13.7175 25.416 4 19.3572 4 12.646C4.00198 11.1216 4.60842 9.66023 5.68633 8.58232C6.76423 7.50442 8.22561 6.89798 9.75 6.896C12.1813 6.896 14.2225 8.191 15.075 10.271C15.1503 10.4544 15.2785 10.6113 15.4432 10.7217C15.6079 10.8321 15.8017 10.891 16 10.891C16.1983 10.891 16.3921 10.8321 16.5568 10.7217C16.7215 10.6113 16.8497 10.4544 16.925 10.271C17.7775 8.18725 19.8187 6.896 22.25 6.896C23.7744 6.89798 25.2358 7.50442 26.3137 8.58232C27.3916 9.66023 27.998 11.1216 28 12.646C28 19.3472 18.28 25.4147 16 26.746Z" fill="#064E3B"/>
</svg>
